<svg width="80" height="80" viewBox="0 0 80 80" fill="none" xmlns="http://www.w3.org/2000/svg">
<path d="M67.5 13.125H22.5C21.3397 13.125 20.2269 13.5859 19.4064 14.4064C18.5859 15.2269 18.125 16.3397 18.125 17.5V23.125H12.5C11.3397 23.125 10.2269 23.5859 9.40641 24.4064C8.58594 25.2269 8.125 26.3397 8.125 27.5V62.5C8.125 63.6603 8.58594 64.7731 9.40641 65.5936C10.2269 66.4141 11.3397 66.875 12.5 66.875H57.5C58.6603 66.875 59.7731 66.4141 60.5936 65.5936C61.4141 64.7731 61.875 63.6603 61.875 62.5V56.875H67.5C68.6603 56.875 69.7731 56.4141 70.5936 55.5936C71.4141 54.7731 71.875 53.6603 71.875 52.5V17.5C71.875 16.3397 71.4141 15.2269 70.5936 14.4064C69.7731 13.5859 68.6603 13.125 67.5 13.125ZM12.5 26.875H57.5C57.6658 26.875 57.8247 26.9408 57.9419 27.0581C58.0592 27.1753 58.125 27.3342 58.125 27.5V33.125H11.875V27.5C11.875 27.3342 11.9408 27.1753 12.0581 27.0581C12.1753 26.9408 12.3342 26.875 12.5 26.875ZM58.125 62.5C58.125 62.6658 58.0592 62.8247 57.9419 62.9419C57.8247 63.0592 57.6658 63.125 57.5 63.125H12.5C12.3342 63.125 12.1753 63.0592 12.0581 62.9419C11.9408 62.8247 11.875 62.6658 11.875 62.5V36.875H58.125V62.5ZM68.125 52.5C68.125 52.6658 68.0592 52.8247 67.9419 52.9419C67.8247 53.0592 67.6658 53.125 67.5 53.125H61.875V27.5C61.875 26.3397 61.4141 25.2269 60.5936 24.4064C59.7731 23.5859 58.6603 23.125 57.5 23.125H21.875V17.5C21.875 17.3342 21.9408 17.1753 22.0581 17.0581C22.1753 16.9408 22.3342 16.875 22.5 16.875H67.5C67.6658 16.875 67.8247 16.9408 67.9419 17.0581C68.0592 17.1753 68.125 17.3342 68.125 17.5V52.5Z" fill="#525252"/>
</svg>
