<svg width="80" height="80" viewBox="0 0 80 80" fill="none" xmlns="http://www.w3.org/2000/svg">
<path d="M75 65.625H71.875V32.5C71.875 31.3397 71.4141 30.2269 70.5936 29.4064C69.7731 28.5859 68.6603 28.125 67.5 28.125H46.875V12.5C46.875 11.3397 46.4141 10.2269 45.5936 9.40641C44.7731 8.58594 43.6603 8.125 42.5 8.125H12.5C11.3397 8.125 10.2269 8.58594 9.40641 9.40641C8.58594 10.2269 8.125 11.3397 8.125 12.5V65.625H5C4.50272 65.625 4.02581 65.8225 3.67417 66.1742C3.32254 66.5258 3.125 67.0027 3.125 67.5C3.125 67.9973 3.32254 68.4742 3.67417 68.8258C4.02581 69.1775 4.50272 69.375 5 69.375H75C75.4973 69.375 75.9742 69.1775 76.3258 68.8258C76.6775 68.4742 76.875 67.9973 76.875 67.5C76.875 67.0027 76.6775 66.5258 76.3258 66.1742C75.9742 65.8225 75.4973 65.625 75 65.625ZM67.5 31.875C67.6658 31.875 67.8247 31.9408 67.9419 32.0581C68.0592 32.1753 68.125 32.3342 68.125 32.5V65.625H46.875V31.875H67.5ZM11.875 12.5C11.875 12.3342 11.9408 12.1753 12.0581 12.0581C12.1753 11.9408 12.3342 11.875 12.5 11.875H42.5C42.6658 11.875 42.8247 11.9408 42.9419 12.0581C43.0592 12.1753 43.125 12.3342 43.125 12.5V65.625H11.875V12.5ZM18.125 22.5C18.125 22.0027 18.3225 21.5258 18.6742 21.1742C19.0258 20.8225 19.5027 20.625 20 20.625H30C30.4973 20.625 30.9742 20.8225 31.3258 21.1742C31.6775 21.5258 31.875 22.0027 31.875 22.5C31.875 22.9973 31.6775 23.4742 31.3258 23.8258C30.9742 24.1775 30.4973 24.375 30 24.375H20C19.5027 24.375 19.0258 24.1775 18.6742 23.8258C18.3225 23.4742 18.125 22.9973 18.125 22.5ZM36.875 42.5C36.875 42.9973 36.6775 43.4742 36.3258 43.8258C35.9742 44.1775 35.4973 44.375 35 44.375H25C24.5027 44.375 24.0258 44.1775 23.6742 43.8258C23.3225 43.4742 23.125 42.9973 23.125 42.5C23.125 42.0027 23.3225 41.5258 23.6742 41.1742C24.0258 40.8225 24.5027 40.625 25 40.625H35C35.4973 40.625 35.9742 40.8225 36.3258 41.1742C36.6775 41.5258 36.875 42.0027 36.875 42.5ZM31.875 55C31.875 55.4973 31.6775 55.9742 31.3258 56.3258C30.9742 56.6775 30.4973 56.875 30 56.875H20C19.5027 56.875 19.0258 56.6775 18.6742 56.3258C18.3225 55.9742 18.125 55.4973 18.125 55C18.125 54.5027 18.3225 54.0258 18.6742 53.6742C19.0258 53.3225 19.5027 53.125 20 53.125H30C30.4973 53.125 30.9742 53.3225 31.3258 53.6742C31.6775 54.0258 31.875 54.5027 31.875 55ZM61.875 55C61.875 55.4973 61.6775 55.9742 61.3258 56.3258C60.9742 56.6775 60.4973 56.875 60 56.875H55C54.5027 56.875 54.0258 56.6775 53.6742 56.3258C53.3225 55.9742 53.125 55.4973 53.125 55C53.125 54.5027 53.3225 54.0258 53.6742 53.6742C54.0258 53.3225 54.5027 53.125 55 53.125H60C60.4973 53.125 60.9742 53.3225 61.3258 53.6742C61.6775 54.0258 61.875 54.5027 61.875 55ZM53.125 42.5C53.125 42.0027 53.3225 41.5258 53.6742 41.1742C54.0258 40.8225 54.5027 40.625 55 40.625H60C60.4973 40.625 60.9742 40.8225 61.3258 41.1742C61.6775 41.5258 61.875 42.0027 61.875 42.5C61.875 42.9973 61.6775 43.4742 61.3258 43.8258C60.9742 44.1775 60.4973 44.375 60 44.375H55C54.5027 44.375 54.0258 44.1775 53.6742 43.8258C53.3225 43.4742 53.125 42.9973 53.125 42.5Z" fill="#525252"/>
</svg>
