<svg width="80" height="80" viewBox="0 0 80 80" fill="none" xmlns="http://www.w3.org/2000/svg">
<path d="M70.1875 32.4375C66.6875 30.5313 62.0312 29.1875 56.875 28.5313V26.25C56.875 22.4688 53.875 19.0312 48.4375 16.5937C43.5 14.3437 36.9375 13.125 30 13.125C23.0625 13.125 16.5 14.3437 11.5625 16.5937C6.125 19.0312 3.125 22.4688 3.125 26.25V38.75C3.125 42.5312 6.125 45.9687 11.5625 48.4062C15.2456 49.9885 19.1415 51.0204 23.125 51.4688V53.75C23.125 57.5312 26.125 60.9687 31.5625 63.4062C36.5 65.6562 43.0625 66.875 50 66.875C56.9375 66.875 63.5 65.6562 68.4375 63.4062C73.875 60.9687 76.875 57.5312 76.875 53.75V41.25C76.875 37.9062 74.5 34.7812 70.1875 32.4375ZM68.375 35.7188C71.4375 37.4063 73.125 39.3438 73.125 41.25C73.125 45.6875 63.625 50.625 50 50.625C47.7857 50.6181 45.5736 50.4825 43.375 50.2188C45.1102 49.7573 46.8037 49.151 48.4375 48.4062C53.875 45.9687 56.875 42.5312 56.875 38.75V32.3125C61.375 32.9375 65.4062 34.125 68.375 35.7188ZM25.2188 47.9062H25.125C24 47.8125 22.9062 47.6562 21.875 47.5V38.7812C24.5656 39.1735 27.2809 39.3719 30 39.375C32.7191 39.3719 35.4344 39.1735 38.125 38.7812V47.5C35.4378 47.9257 32.7207 48.1347 30 48.125C28.4036 48.133 26.8078 48.0599 25.2188 47.9062ZM53.125 33.0938V38.75C53.125 41.7188 48.8438 44.9375 41.875 46.7188V38.0625C44.1319 37.5753 46.3315 36.8526 48.4375 35.9062C50.1237 35.1924 51.7016 34.2457 53.125 33.0938ZM30 16.875C43.625 16.875 53.125 21.8125 53.125 26.25C53.125 30.6875 43.625 35.625 30 35.625C16.375 35.625 6.875 30.6875 6.875 26.25C6.875 21.8125 16.375 16.875 30 16.875ZM6.875 38.75V33.0938C8.2984 34.2457 9.87626 35.1924 11.5625 35.9062C13.6685 36.8526 15.8681 37.5753 18.125 38.0625V46.7188C11.1562 44.9375 6.875 41.7188 6.875 38.75ZM26.875 53.75V51.7812C27.9062 51.8438 28.9375 51.875 30 51.875C31.0625 51.875 32.4375 51.8438 33.6562 51.75C35.1095 52.3028 36.6036 52.7416 38.125 53.0625V61.7188C31.1562 59.9375 26.875 56.7188 26.875 53.75ZM41.875 62.5V53.7812C44.5658 54.1723 47.281 54.3707 50 54.375C52.7191 54.3719 55.4344 54.1735 58.125 53.7812V62.5C52.7404 63.3333 47.2596 63.3333 41.875 62.5ZM61.875 61.7188V53.0625C64.1319 52.5753 66.3315 51.8526 68.4375 50.9062C70.1237 50.1924 71.7016 49.2457 73.125 48.0938V53.75C73.125 56.7188 68.8438 59.9375 61.875 61.7188Z" fill="#525252"/>
</svg>
