<svg width="80" height="80" viewBox="0 0 80 80" fill="none" xmlns="http://www.w3.org/2000/svg">
<path d="M67.5 13.125H12.5C11.3397 13.125 10.2269 13.5859 9.40641 14.4064C8.58594 15.2269 8.125 16.3397 8.125 17.5V62.5C8.125 63.6603 8.58594 64.7731 9.40641 65.5936C10.2269 66.4141 11.3397 66.875 12.5 66.875H16.6875C17.0402 66.8746 17.3857 66.7746 17.6842 66.5867C17.9827 66.3987 18.2221 66.1304 18.375 65.8125C19.6404 63.1368 21.6399 60.8755 24.1405 59.292C26.6411 57.7084 29.5401 56.8677 32.5 56.8677C35.4599 56.8677 38.3589 57.7084 40.8595 59.292C43.3601 60.8755 45.3596 63.1368 46.625 65.8125C46.7779 66.1304 47.0173 66.3987 47.3158 66.5867C47.6143 66.7746 47.9598 66.8746 48.3125 66.875H67.5C68.6603 66.875 69.7731 66.4141 70.5936 65.5936C71.4141 64.7731 71.875 63.6603 71.875 62.5V17.5C71.875 16.3397 71.4141 15.2269 70.5936 14.4064C69.7731 13.5859 68.6603 13.125 67.5 13.125ZM24.375 45C24.375 43.393 24.8515 41.8221 25.7443 40.486C26.6371 39.1498 27.906 38.1084 29.3907 37.4935C30.8753 36.8785 32.509 36.7176 34.0851 37.0311C35.6612 37.3446 37.1089 38.1185 38.2452 39.2548C39.3815 40.3911 40.1554 41.8388 40.4689 43.4149C40.7824 44.991 40.6215 46.6247 40.0065 48.1093C39.3916 49.594 38.3502 50.8629 37.014 51.7557C35.6779 52.6485 34.107 53.125 32.5 53.125C30.3477 53.1168 28.2858 52.2581 26.7639 50.7362C25.2419 49.2142 24.3832 47.1524 24.375 45ZM68.125 62.5C68.125 62.6658 68.0592 62.8247 67.9419 62.9419C67.8247 63.0592 67.6658 63.125 67.5 63.125H49.4688C47.2811 59.2002 43.8032 56.1529 39.625 54.5C41.6189 53.0046 43.0917 50.9197 43.8348 48.5407C44.578 46.1618 44.5538 43.6092 43.7656 41.2448C42.9775 38.8803 41.4653 36.8238 39.4434 35.3665C37.4215 33.9092 34.9924 33.125 32.5 33.125C30.0076 33.125 27.5785 33.9092 25.5566 35.3665C23.5347 36.8238 22.0225 38.8803 21.2344 41.2448C20.4462 43.6092 20.422 46.1618 21.1652 48.5407C21.9083 50.9197 23.3811 53.0046 25.375 54.5C21.1968 56.1529 17.7189 59.2002 15.5312 63.125H12.5C12.3367 63.1174 12.1821 63.0491 12.0665 62.9335C11.9509 62.8179 11.8826 62.6633 11.875 62.5V17.5C11.875 17.3342 11.9408 17.1753 12.0581 17.0581C12.1753 16.9408 12.3342 16.875 12.5 16.875H67.5C67.6658 16.875 67.8247 16.9408 67.9419 17.0581C68.0592 17.1753 68.125 17.3342 68.125 17.5V62.5ZM61.875 25V55C61.875 55.4973 61.6775 55.9742 61.3258 56.3258C60.9742 56.6775 60.4973 56.875 60 56.875H55C54.5027 56.875 54.0258 56.6775 53.6742 56.3258C53.3225 55.9742 53.125 55.4973 53.125 55C53.125 54.5027 53.3225 54.0258 53.6742 53.6742C54.0258 53.3225 54.5027 53.125 55 53.125H58.125V26.875H21.875V30C21.875 30.4973 21.6775 30.9742 21.3258 31.3258C20.9742 31.6775 20.4973 31.875 20 31.875C19.5027 31.875 19.0258 31.6775 18.6742 31.3258C18.3225 30.9742 18.125 30.4973 18.125 30V25C18.125 24.5027 18.3225 24.0258 18.6742 23.6742C19.0258 23.3225 19.5027 23.125 20 23.125H60C60.4973 23.125 60.9742 23.3225 61.3258 23.6742C61.6775 24.0258 61.875 24.5027 61.875 25Z" fill="#525252"/>
</svg>
