<svg width="80" height="80" viewBox="0 0 80 80" fill="none" xmlns="http://www.w3.org/2000/svg">
<path d="M69.3455 52.4689C69.3455 52.4064 69.3767 52.3752 69.408 52.3127C72.2119 45.6129 72.6437 38.1565 70.6319 31.1778C68.6201 24.1992 64.2855 18.1168 58.3455 13.9377L57.9705 13.6877C51.8145 9.49226 44.3834 7.58559 36.9679 8.29881C29.5525 9.01203 22.621 12.3001 17.3775 17.5919C12.134 22.8837 8.90959 29.845 8.26436 37.2667C7.61913 44.6883 9.59382 52.1016 13.8455 58.2189C13.8767 58.2189 13.8767 58.2502 13.8767 58.2814L14.0955 58.5627C16.5847 62.0418 19.7494 64.9837 23.4007 67.2128C27.0519 69.4418 31.1149 70.9123 35.3471 71.5365C39.5792 72.1607 43.8937 71.9257 48.033 70.8456C52.1723 69.7656 56.0516 67.8626 59.4392 65.2502C59.5671 65.174 59.683 65.0792 59.783 64.9689C63.9538 61.6559 67.2392 57.3613 69.3455 52.4689ZM58.5642 61.0939L56.4392 58.9689C55.8811 58.4205 55.193 58.0227 54.4392 57.8127L47.7517 56.0627C47.6028 56.0256 47.4727 55.9351 47.3863 55.8083C47.2999 55.6815 47.2631 55.5273 47.283 55.3752L48.033 50.3127C48.0461 50.2037 48.0877 50.1002 48.1535 50.0124C48.2193 49.9247 48.3071 49.8558 48.408 49.8127L57.908 45.8752C58.0206 45.8284 58.1436 45.8125 58.2644 45.8289C58.3852 45.8454 58.4995 45.8937 58.5955 45.9689L65.3455 52.1877C63.7098 55.584 61.403 58.6137 58.5642 61.0939ZM40.0017 11.8752C45.4139 11.8646 50.7123 13.4281 55.2517 16.3752L55.5955 23.0314C55.591 23.1901 55.5363 23.3433 55.4392 23.4689L48.5017 31.4689C48.4052 31.5823 48.2729 31.6594 48.1267 31.6877L38.283 33.0002C38.1205 33.029 37.9531 32.9955 37.8142 32.9064L31.6892 28.4377C31.2047 28.0948 30.6567 27.8518 30.0772 27.7231C29.4977 27.5943 28.8984 27.5823 28.3142 27.6877C27.7277 27.7959 27.1697 28.0238 26.675 28.3572C26.1804 28.6905 25.7597 29.1221 25.4392 29.6252L19.2205 39.3439C18.7781 40.0462 18.54 40.8577 18.533 41.6877L18.4705 52.9689C18.4751 53.0745 18.4515 53.1794 18.402 53.2728C18.3526 53.3662 18.2791 53.4447 18.1892 53.5002L16.0642 54.7814C13.4318 50.5201 11.9852 45.6332 11.8738 40.6256C11.7624 35.618 12.9903 30.6716 15.4307 26.2974C17.871 21.9233 21.4352 18.2803 25.7548 15.7448C30.0745 13.2093 34.9929 11.8734 40.0017 11.8752ZM18.2517 57.8439L20.1267 56.7189C20.7621 56.3272 21.2876 55.7804 21.6539 55.1299C22.0201 54.4795 22.215 53.7466 22.2205 53.0002L22.283 41.6877C22.2844 41.5768 22.3169 41.4685 22.3767 41.3752L28.5955 31.6564C28.6952 31.5195 28.8384 31.4203 29.0017 31.3752C29.0819 31.3554 29.1655 31.3536 29.2465 31.3698C29.3276 31.386 29.404 31.4198 29.4705 31.4689L35.6267 35.9377C36.538 36.5969 37.6694 36.8769 38.783 36.7189L48.6267 35.4064C49.685 35.2529 50.6513 34.7197 51.3455 33.9064L58.2517 25.9064C58.9966 25.066 59.3786 23.965 59.3142 22.8439L59.158 19.4377C61.9927 22.0593 64.2532 25.24 65.7969 28.7792C67.3406 32.3183 68.1339 36.139 68.1267 40.0002C68.1199 42.8606 67.6881 45.7042 66.8455 48.4377L61.1267 43.2189C60.5079 42.6552 59.7414 42.2794 58.9168 42.1355C58.0921 41.9916 57.2436 42.0856 56.4705 42.4064L46.9705 46.3752C46.2732 46.6593 45.6617 47.1197 45.196 47.7114C44.7304 48.3031 44.4265 49.0056 44.3142 49.7502L43.5642 54.8127C43.4058 55.8791 43.6467 56.9664 44.2407 57.8661C44.8348 58.7658 45.7401 59.4144 46.783 59.6877L53.5017 61.4377C53.6085 61.478 53.7047 61.5421 53.783 61.6252L55.5642 63.4064C49.7634 67.2746 42.7315 68.8476 35.8354 67.8195C28.9394 66.7915 22.672 63.2359 18.2517 57.8439Z" fill="#525252"/>
</svg>
