<svg width="80" height="80" viewBox="0 0 80 80" fill="none" xmlns="http://www.w3.org/2000/svg">
<path d="M75 28.125H70.375L68.4062 14.375C68.2503 13.3394 67.7307 12.3932 66.9404 11.706C66.1501 11.0189 65.141 10.6356 64.0938 10.625H15.9062C14.8591 10.6356 13.8499 11.0189 13.0596 11.706C12.2693 12.3932 11.7497 13.3394 11.5938 14.375L9.625 28.125H5C4.50272 28.125 4.02581 28.3225 3.67417 28.6742C3.32254 29.0258 3.125 29.5027 3.125 30C3.125 30.4973 3.32254 30.9742 3.67417 31.3258C4.02581 31.6775 4.50272 31.875 5 31.875H9.375V65C9.375 66.1603 9.83594 67.2731 10.6564 68.0936C11.4769 68.9141 12.5897 69.375 13.75 69.375H21.25C22.4103 69.375 23.5231 68.9141 24.3436 68.0936C25.1641 67.2731 25.625 66.1603 25.625 65V56.875H54.375V65C54.375 66.1603 54.8359 67.2731 55.6564 68.0936C56.4769 68.9141 57.5897 69.375 58.75 69.375H66.25C67.4103 69.375 68.5231 68.9141 69.3436 68.0936C70.1641 67.2731 70.625 66.1603 70.625 65V31.875H75C75.4973 31.875 75.9742 31.6775 76.3258 31.3258C76.6775 30.9742 76.875 30.4973 76.875 30C76.875 29.5027 76.6775 29.0258 76.3258 28.6742C75.9742 28.3225 75.4973 28.125 75 28.125ZM15.3125 14.9062C15.328 14.7598 15.3973 14.6244 15.507 14.5263C15.6168 14.4281 15.759 14.3742 15.9062 14.375H64.0938C64.241 14.3742 64.3832 14.4281 64.493 14.5263C64.6027 14.6244 64.672 14.7598 64.6875 14.9062L66.5938 28.125H13.4062L15.3125 14.9062ZM21.875 65C21.875 65.1658 21.8092 65.3247 21.6919 65.4419C21.5747 65.5592 21.4158 65.625 21.25 65.625H13.75C13.5842 65.625 13.4253 65.5592 13.3081 65.4419C13.1908 65.3247 13.125 65.1658 13.125 65V56.875H21.875V65ZM66.25 65.625H58.75C58.5842 65.625 58.4253 65.5592 58.3081 65.4419C58.1908 65.3247 58.125 65.1658 58.125 65V56.875H66.875V65C66.875 65.1658 66.8092 65.3247 66.6919 65.4419C66.5747 65.5592 66.4158 65.625 66.25 65.625ZM66.875 53.125H46.875V40C46.875 39.5027 46.6775 39.0258 46.3258 38.6742C45.9742 38.3225 45.4973 38.125 45 38.125C44.5027 38.125 44.0258 38.3225 43.6742 38.6742C43.3225 39.0258 43.125 39.5027 43.125 40V53.125H36.875V40C36.875 39.5027 36.6775 39.0258 36.3258 38.6742C35.9742 38.3225 35.4973 38.125 35 38.125C34.5027 38.125 34.0258 38.3225 33.6742 38.6742C33.3225 39.0258 33.125 39.5027 33.125 40V53.125H13.125V31.875H66.875V53.125ZM19.375 41.25C19.375 40.6319 19.5583 40.0277 19.9017 39.5138C20.245 38.9999 20.7331 38.5994 21.3041 38.3629C21.8751 38.1264 22.5035 38.0645 23.1097 38.185C23.7158 38.3056 24.2727 38.6033 24.7097 39.0403C25.1467 39.4773 25.4444 40.0342 25.565 40.6403C25.6855 41.2465 25.6236 41.8749 25.3871 42.4459C25.1506 43.0169 24.7501 43.505 24.2362 43.8483C23.7223 44.1917 23.1181 44.375 22.5 44.375C21.6712 44.375 20.8763 44.0458 20.2903 43.4597C19.7042 42.8737 19.375 42.0788 19.375 41.25ZM54.375 41.25C54.375 40.6319 54.5583 40.0277 54.9017 39.5138C55.245 38.9999 55.7331 38.5994 56.3041 38.3629C56.8751 38.1264 57.5035 38.0645 58.1097 38.185C58.7158 38.3056 59.2727 38.6033 59.7097 39.0403C60.1468 39.4773 60.4444 40.0342 60.565 40.6403C60.6855 41.2465 60.6236 41.8749 60.3871 42.4459C60.1506 43.0169 59.7501 43.505 59.2362 43.8483C58.7223 44.1917 58.1181 44.375 57.5 44.375C56.6712 44.375 55.8763 44.0458 55.2903 43.4597C54.7042 42.8737 54.375 42.0788 54.375 41.25Z" fill="#525252"/>
</svg>
