<svg width="80" height="80" viewBox="0 0 80 80" fill="none" xmlns="http://www.w3.org/2000/svg">
<path d="M71.1876 16.0312C70.9697 15.8489 70.7108 15.7223 70.4332 15.6624C70.1555 15.6025 69.8674 15.6111 69.5938 15.6875L50.2501 20.5L30.8751 10.8125H30.8438L30.6563 10.7187H30.4376C30.4376 10.6875 30.4063 10.6875 30.3751 10.6875H29.5938L9.5938 15.6875C9.18333 15.7802 8.81692 16.0105 8.55543 16.3403C8.29393 16.67 8.1531 17.0792 8.1563 17.5V62.5C8.15965 62.7828 8.22588 63.0613 8.35019 63.3154C8.47451 63.5694 8.6538 63.7926 8.87505 63.9688C9.20161 64.2343 9.61041 64.3779 10.0313 64.375L10.5001 64.3125L29.8126 59.5L49.1876 69.1875L49.4063 69.2812H49.4688L49.6876 69.3438H50.5001L70.5001 64.3438C70.9047 64.2449 71.264 64.012 71.5194 63.6828C71.7748 63.3537 71.9111 62.9478 71.9063 62.5313V17.5C71.91 17.216 71.8468 16.9351 71.722 16.68C71.5971 16.4248 71.4141 16.2026 71.1876 16.0312ZM11.9063 18.9688L28.1563 14.9062V56.0312L11.9063 60.0938V18.9688ZM48.1563 64.4688L31.9063 56.3438V15.5312L48.1563 23.6562V64.4688ZM68.1563 61.0312L51.9063 65.0938V23.9687L68.1563 19.9062V61.0312Z" fill="#525252"/>
</svg>
