<svg width="80" height="80" viewBox="0 0 80 80" fill="none" xmlns="http://www.w3.org/2000/svg">
<path d="M31.25 18.125H12.5C11.3397 18.125 10.2269 18.5859 9.40641 19.4064C8.58594 20.2269 8.125 21.3397 8.125 22.5V42.5C8.125 43.6603 8.58594 44.7731 9.40641 45.5936C10.2269 46.4141 11.3397 46.875 12.5 46.875H31.875V50C31.8668 52.8154 30.7447 55.5131 28.7539 57.5039C26.7631 59.4947 24.0654 60.6168 21.25 60.625C20.7527 60.625 20.2758 60.8225 19.9242 61.1742C19.5725 61.5258 19.375 62.0027 19.375 62.5C19.375 62.9973 19.5725 63.4742 19.9242 63.8258C20.2758 64.1775 20.7527 64.375 21.25 64.375C25.0625 64.375 28.7188 62.8605 31.4147 60.1647C34.1105 57.4688 35.625 53.8125 35.625 50V22.5C35.625 21.3397 35.1641 20.2269 34.3436 19.4064C33.5231 18.5859 32.4103 18.125 31.25 18.125ZM31.875 43.125H12.5C12.3342 43.125 12.1753 43.0592 12.0581 42.9419C11.9408 42.8247 11.875 42.6658 11.875 42.5V22.5C11.875 22.3342 11.9408 22.1753 12.0581 22.0581C12.1753 21.9408 12.3342 21.875 12.5 21.875H31.25C31.4158 21.875 31.5747 21.9408 31.6919 22.0581C31.8092 22.1753 31.875 22.3342 31.875 22.5V43.125ZM67.5 18.125H48.75C47.5897 18.125 46.4769 18.5859 45.6564 19.4064C44.8359 20.2269 44.375 21.3397 44.375 22.5V42.5C44.375 43.6603 44.8359 44.7731 45.6564 45.5936C46.4769 46.4141 47.5897 46.875 48.75 46.875H68.125V50C68.1168 52.8154 66.9947 55.5131 65.0039 57.5039C63.0131 59.4947 60.3154 60.6168 57.5 60.625C57.0027 60.625 56.5258 60.8225 56.1742 61.1742C55.8225 61.5258 55.625 62.0027 55.625 62.5C55.625 62.9973 55.8225 63.4742 56.1742 63.8258C56.5258 64.1775 57.0027 64.375 57.5 64.375C61.3125 64.375 64.9688 62.8605 67.6647 60.1647C70.3605 57.4688 71.875 53.8125 71.875 50V22.5C71.875 21.3397 71.4141 20.2269 70.5936 19.4064C69.7731 18.5859 68.6603 18.125 67.5 18.125ZM68.125 43.125H48.75C48.5842 43.125 48.4253 43.0592 48.3081 42.9419C48.1908 42.8247 48.125 42.6658 48.125 42.5V22.5C48.125 22.3342 48.1908 22.1753 48.3081 22.0581C48.4253 21.9408 48.5842 21.875 48.75 21.875H67.5C67.6658 21.875 67.8247 21.9408 67.9419 22.0581C68.0592 22.1753 68.125 22.3342 68.125 22.5V43.125Z" fill="#525252"/>
</svg>
