<svg width="80" height="80" viewBox="0 0 80 80" fill="none" xmlns="http://www.w3.org/2000/svg">
<path d="M67.5 13.125H12.5C11.3397 13.125 10.2269 13.5859 9.40641 14.4064C8.58594 15.2269 8.125 16.3397 8.125 17.5V62.5C8.125 63.6603 8.58594 64.7731 9.40641 65.5936C10.2269 66.4141 11.3397 66.875 12.5 66.875H67.5C68.6603 66.875 69.7731 66.4141 70.5936 65.5936C71.4141 64.7731 71.875 63.6603 71.875 62.5V17.5C71.875 16.3397 71.4141 15.2269 70.5936 14.4064C69.7731 13.5859 68.6603 13.125 67.5 13.125ZM11.875 62.5V46.875H17.5C17.9973 46.875 18.4742 46.6775 18.8258 46.3258C19.1775 45.9742 19.375 45.4973 19.375 45C19.375 44.5027 19.1775 44.0258 18.8258 43.6742C18.4742 43.3225 17.9973 43.125 17.5 43.125H11.875V36.875H17.5C17.9973 36.875 18.4742 36.6775 18.8258 36.3258C19.1775 35.9742 19.375 35.4973 19.375 35C19.375 34.5027 19.1775 34.0258 18.8258 33.6742C18.4742 33.3225 17.9973 33.125 17.5 33.125H11.875V26.875H17.5C17.9973 26.875 18.4742 26.6775 18.8258 26.3258C19.1775 25.9742 19.375 25.4973 19.375 25C19.375 24.5027 19.1775 24.0258 18.8258 23.6742C18.4742 23.3225 17.9973 23.125 17.5 23.125H11.875V17.5C11.875 17.3342 11.9408 17.1753 12.0581 17.0581C12.1753 16.9408 12.3342 16.875 12.5 16.875H25.625V63.125H12.5C12.3342 63.125 12.1753 63.0592 12.0581 62.9419C11.9408 62.8247 11.875 62.6658 11.875 62.5ZM68.125 62.5C68.125 62.6658 68.0592 62.8247 67.9419 62.9419C67.8247 63.0592 67.6658 63.125 67.5 63.125H29.375V16.875H67.5C67.6658 16.875 67.8247 16.9408 67.9419 17.0581C68.0592 17.1753 68.125 17.3342 68.125 17.5V62.5Z" fill="#525252"/>
</svg>
