<svg width="20" height="20" viewBox="0 0 20 20" fill="none" xmlns="http://www.w3.org/2000/svg">
<path d="M19.1941 6.07039L16.8347 8.42195C16.3659 13.8829 11.7566 18.1251 6.24874 18.1251C5.11593 18.1251 4.17843 17.9454 3.46749 17.5938C2.89718 17.3048 2.66281 17.0001 2.60031 16.9063C2.54859 16.8278 2.51527 16.7386 2.50282 16.6454C2.49038 16.5522 2.49912 16.4573 2.52841 16.368C2.55769 16.2786 2.60676 16.197 2.67197 16.1293C2.73717 16.0615 2.81682 16.0093 2.90499 15.9766C2.92062 15.9688 4.76437 15.2657 5.95968 13.9141C5.21838 13.3863 4.56683 12.7427 4.02999 12.0079C2.95968 10.5548 1.82687 8.03132 2.50656 4.2657C2.52792 4.15375 2.57913 4.04965 2.65476 3.96439C2.73039 3.87913 2.82764 3.81589 2.93624 3.78132C3.04519 3.74565 3.16185 3.74063 3.27346 3.76681C3.38507 3.79299 3.48733 3.84936 3.56906 3.92976C3.59249 3.96101 6.19406 6.52351 9.37374 7.35164V6.87507C9.37681 6.37954 9.47746 5.88945 9.66993 5.43281C9.8624 4.97617 10.1429 4.56191 10.4955 4.21369C10.8481 3.86547 11.2658 3.59011 11.7248 3.40332C12.1838 3.21653 12.6751 3.12199 13.1706 3.12507C13.821 3.13435 14.4579 3.31193 15.0192 3.64053C15.5806 3.96912 16.0472 4.43751 16.3737 5.00007H18.7487C18.8721 4.99969 18.9929 5.03583 19.0958 5.10396C19.1986 5.17208 19.2791 5.26913 19.3269 5.38289C19.3719 5.49833 19.3833 5.62416 19.3598 5.74583C19.3363 5.86749 19.2788 5.98002 19.1941 6.07039Z" fill="#F7896E"/>
</svg>
