<svg width="54" height="74" viewBox="0 0 54 74" fill="none" xmlns="http://www.w3.org/2000/svg">
<path d="M16.9998 73.8743C16.7039 73.8795 16.4122 73.8039 16.1561 73.6555C15.7908 73.4722 15.4954 73.1745 15.3149 72.8079C15.1344 72.4412 15.0786 72.0256 15.1561 71.6243L19.8436 48.1868L1.34359 41.2493C1.05193 41.143 0.79243 40.9637 0.589971 40.7284C0.387511 40.4931 0.248872 40.2098 0.187338 39.9055C0.106425 39.6105 0.104242 39.2995 0.181005 39.0034C0.257769 38.7073 0.410797 38.4365 0.624837 38.218L35.6248 0.71802C35.9005 0.418726 36.266 0.217229 36.6663 0.143944C37.0665 0.0706597 37.4798 0.129566 37.8436 0.31177C38.208 0.504462 38.5015 0.808358 38.6813 1.17928C38.8611 1.5502 38.918 1.96882 38.8436 2.37427L34.1561 25.7805L52.6561 32.7493C52.9445 32.857 53.202 33.0342 53.4058 33.2651C53.6095 33.496 53.7533 33.7735 53.8243 34.0731C53.8954 34.3727 53.8915 34.6852 53.8131 34.983C53.7347 35.2808 53.5842 35.5547 53.3748 35.7805L18.3748 73.2805C18.0126 73.6519 17.5185 73.8652 16.9998 73.8743ZM5.28109 38.718L22.6561 45.2493C23.0784 45.3987 23.4318 45.6969 23.6504 46.0879C23.8689 46.479 23.9376 46.9363 23.8436 47.3743L20.1248 65.8743L48.7186 35.2493L31.3436 28.7493C30.9213 28.5998 30.5678 28.3017 30.3493 27.9106C30.1308 27.5195 30.0621 27.0623 30.1561 26.6243L33.8748 8.09302L5.28109 38.718Z" fill="#525252"/>
</svg>
