<svg width="60" height="67" viewBox="0 0 60 67" fill="none" xmlns="http://www.w3.org/2000/svg">
<path d="M30 32.625C28.0082 32.6244 26.0855 33.3555 24.5973 34.6794C23.1091 36.0033 22.159 37.8278 21.9277 39.8061C21.6963 41.7845 22.1997 43.7789 23.3422 45.4105C24.4847 47.0421 26.1868 48.1972 28.125 48.6562V54.5C28.125 54.9973 28.3225 55.4742 28.6742 55.8258C29.0258 56.1775 29.5027 56.375 30 56.375C30.4973 56.375 30.9742 56.1775 31.3258 55.8258C31.6775 55.4742 31.875 54.9973 31.875 54.5V48.6562C33.8132 48.1972 35.5153 47.0421 36.6578 45.4105C37.8003 43.7789 38.3037 41.7845 38.0723 39.8061C37.841 37.8278 36.8909 36.0033 35.4027 34.6794C33.9145 33.3555 31.9918 32.6244 30 32.625ZM30 45.125C29.1347 45.125 28.2888 44.8684 27.5694 44.3877C26.8499 43.9069 26.2892 43.2237 25.958 42.4242C25.6269 41.6248 25.5403 40.7451 25.7091 39.8965C25.8779 39.0478 26.2946 38.2683 26.9064 37.6564C27.5183 37.0446 28.2978 36.6279 29.1465 36.4591C29.9951 36.2903 30.8748 36.3769 31.6742 36.708C32.4737 37.0392 33.1569 37.5999 33.6377 38.3194C34.1184 39.0388 34.375 39.8847 34.375 40.75C34.375 41.9103 33.9141 43.0231 33.0936 43.8436C32.2731 44.6641 31.1603 45.125 30 45.125ZM55 22.625H43.125V13.25C43.125 9.76903 41.7422 6.43064 39.2808 3.96922C36.8194 1.50781 33.481 0.125 30 0.125C26.519 0.125 23.1806 1.50781 20.7192 3.96922C18.2578 6.43064 16.875 9.76903 16.875 13.25V22.625H5C3.83968 22.625 2.72688 23.0859 1.90641 23.9064C1.08594 24.7269 0.625 25.8397 0.625 27V62C0.625 63.1603 1.08594 64.2731 1.90641 65.0936C2.72688 65.9141 3.83968 66.375 5 66.375H55C56.1603 66.375 57.2731 65.9141 58.0936 65.0936C58.9141 64.2731 59.375 63.1603 59.375 62V27C59.375 25.8397 58.9141 24.7269 58.0936 23.9064C57.2731 23.0859 56.1603 22.625 55 22.625ZM20.625 13.25C20.625 10.7636 21.6127 8.37903 23.3709 6.62087C25.129 4.86272 27.5136 3.875 30 3.875C32.4864 3.875 34.871 4.86272 36.6291 6.62087C38.3873 8.37903 39.375 10.7636 39.375 13.25V22.625H20.625V13.25ZM55.625 62C55.625 62.1658 55.5592 62.3247 55.4419 62.4419C55.3247 62.5592 55.1658 62.625 55 62.625H5C4.83424 62.625 4.67527 62.5592 4.55806 62.4419C4.44085 62.3247 4.375 62.1658 4.375 62V27C4.375 26.8342 4.44085 26.6753 4.55806 26.5581C4.67527 26.4408 4.83424 26.375 5 26.375H55C55.1658 26.375 55.3247 26.4408 55.4419 26.5581C55.5592 26.6753 55.625 26.8342 55.625 27V62Z" fill="#525252"/>
</svg>
