<svg width="64" height="54" viewBox="0 0 64 54" fill="none" xmlns="http://www.w3.org/2000/svg">
<path d="M59.5 0.125H4.5C3.33968 0.125 2.22688 0.585936 1.40641 1.40641C0.585936 2.22688 0.125 3.33968 0.125 4.5V49.5C0.125 50.6603 0.585936 51.7731 1.40641 52.5936C2.22688 53.4141 3.33968 53.875 4.5 53.875H59.5C60.6603 53.875 61.7731 53.4141 62.5936 52.5936C63.4141 51.7731 63.875 50.6603 63.875 49.5V4.5C63.875 3.33968 63.4141 2.22688 62.5936 1.40641C61.7731 0.585936 60.6603 0.125 59.5 0.125ZM4.5 3.875H59.5C59.6658 3.875 59.8247 3.94085 59.9419 4.05806C60.0592 4.17527 60.125 4.33424 60.125 4.5V17.625H3.875V4.5C3.875 4.33424 3.94085 4.17527 4.05806 4.05806C4.17527 3.94085 4.33424 3.875 4.5 3.875ZM3.875 49.5V21.375H22.625V50.125H4.5C4.33424 50.125 4.17527 50.0592 4.05806 49.9419C3.94085 49.8247 3.875 49.6658 3.875 49.5ZM59.5 50.125H26.375V21.375H60.125V49.5C60.125 49.6658 60.0592 49.8247 59.9419 49.9419C59.8247 50.0592 59.6658 50.125 59.5 50.125Z" fill="#525252"/>
</svg>
